<svg xmlns="http://www.w3.org/2000/svg" xmlns:xlink="http://www.w3.org/1999/xlink"
     xml:space="preserve"
     version="1.1" style="shape-rendering:geometricPrecision;text-rendering:geometricPrecision;image-rendering:optimizeQuality;"
     viewBox="0 0 846.66 900.325" x="0px" y="0px" fill-rule="evenodd" clip-rule="evenodd"><defs><style type="text/css">

    .fil0 {fill:red}

  </style></defs><g><path class="fil0" d="M206.43 693.34c123.82,216.69 478.99,98.58 475.24,-144.3 -1.92,-125.07 -1.8,-125.8 -1.8,-125.8l-59.5 81.06c-5.06,-23.9 -1.39,-107.95 14.91,-118.81 -125.25,-119.15 -172.59,-178.7 -217.4,-345.85 -28.6,43.4 -61.22,88.16 -93.3,134.04 26.19,52.57 32.61,102.18 8.74,152.1 -42.33,88.5 -71.19,101.01 -71.19,101.01 0,0 22.53,-80.39 -3.64,-153.47 -82.31,134.3 -134.26,276.18 -52.06,420.02zm298.89 -184.06c2.66,-35.73 56.99,-31.7 54.33,4.05 -14.04,184.24 -161.56,186.8 -161.98,186.82 -35.73,0.97 -37.21,-53.36 -1.49,-54.33 0.28,-0.01 98.86,-1.59 109.14,-136.54z"/></g><text x="0" y="861.66" fill="#000000" font-size="5px" font-weight="bold" font-family="'Helvetica Neue', Helvetica, Arial-Unicode, Arial, Sans-serif">Created by Pamerat</text><text x="0" y="866.66" fill="#000000" font-size="5px" font-weight="bold" font-family="'Helvetica Neue', Helvetica, Arial-Unicode, Arial, Sans-serif">from the Noun Project</text></svg>
