<svg xmlns="http://www.w3.org/2000/svg"  fill="#ffc400" xmlns:xlink="http://www.w3.org/1999/xlink" version="1.1" x="0px" y="0px"
                                                                                                                             viewBox="0 0 100 100" enable-background="new 0 0 100 100" xml:space="preserve"><path d="M92.313,14.194H80.438V9.432c0-2.012-0.789-2.801-2.801-2.801H22.363c-2.011,0-2.801,0.789-2.801,2.801l0.001,4.762H7.688  C5.759,14.194,5,14.953,5,16.883v0.224C5.623,32.795,16.042,46.07,31.803,51.604c3.354,4.934,7.44,9.285,12.408,12.852  C43.545,74.501,39.81,81.29,33.927,87.768h-1.293c-1.856,0-2.801,0.943-2.801,2.801c0,1.856,0.944,2.801,2.801,2.801h34.732  c1.856,0,2.801-0.944,2.801-2.801c0-1.857-0.944-2.801-2.801-2.801h-1.293c-5.884-6.478-9.618-13.267-10.284-23.313  c4.968-3.565,9.055-7.918,12.408-12.853C83.958,46.069,94.377,32.795,95,17.106v-0.224C95,14.953,94.241,14.194,92.313,14.194z   M10.93,20.351c-0.047-0.306,0.038-0.555,0.48-0.555h8.769c1.326,8.402,3.53,16.356,6.879,23.476  C18.29,38.169,12.394,29.925,10.93,20.351z M62.316,27.341l-5.385,4.732c-0.32,0.28-0.41,0.554-0.316,0.969l1.576,6.994  c0.172,0.767,0.047,1.082-0.229,1.281c-0.275,0.199-0.613,0.223-1.29-0.179l-6.164-3.66c-0.366-0.218-0.653-0.218-1.02,0  l-6.165,3.66c-0.675,0.401-1.014,0.378-1.289,0.179c-0.274-0.199-0.4-0.515-0.229-1.281l1.577-6.994  c0.093-0.415,0.004-0.688-0.316-0.969l-5.386-4.732c-0.59-0.519-0.673-0.848-0.567-1.17c0.104-0.324,0.365-0.541,1.148-0.613  l7.138-0.663c0.424-0.04,0.657-0.208,0.825-0.6l2.836-6.585c0.311-0.721,0.598-0.901,0.938-0.901c0.339,0,0.627,0.181,0.938,0.901  l2.836,6.585c0.168,0.392,0.4,0.56,0.824,0.6l7.139,0.663c0.781,0.072,1.043,0.289,1.147,0.613  C62.99,26.493,62.907,26.822,62.316,27.341z M89.07,20.351c-1.465,9.574-7.361,17.818-16.129,22.921  c3.35-7.119,5.554-15.073,6.879-23.476h8.77C89.032,19.796,89.117,20.045,89.07,20.351z"/>
</svg>
